<svg xmlns="http://www.w3.org/2000/svg" width="32" height="31" viewBox="0 0 32 31">
    <g data-name="Group 873">
        <g data-name="google-svgrepo-com (3)">
            <path data-name="Path 1281" d="M6.044 11.652a8.445 8.445 0 0 1 8.036-5.794 8.278 8.278 0 0 1 5.272 1.888l4.166-4.166A14.308 14.308 0 0 0 1.24 7.935z" transform="translate(2.465 1.185)" style="fill:#ea4335"/>
            <path data-name="Path 1282" d="M18.9 18.736a8.826 8.826 0 0 1-4.822 1.287 8.445 8.445 0 0 1-8.023-5.755l-4.82 3.66a14.277 14.277 0 0 0 12.845 7.953 13.639 13.639 0 0 0 9.348-3.58z" transform="translate(2.464 3.943)" style="fill:#34a853"/>
            <path data-name="Path 1283" d="M21.348 23.161a14.264 14.264 0 0 0 4.32-10.739 11.879 11.879 0 0 0-.325-2.6H12v5.533h7.68a6.453 6.453 0 0 1-2.858 4.245z" transform="translate(4.544 3.083)" style="fill:#4a90e2"/>
            <path data-name="Path 1284" d="M6.3 15.74a8.562 8.562 0 0 1-.013-5.374L1.48 6.65a14.487 14.487 0 0 0 0 12.75z" transform="translate(2.225 2.47)" style="fill:#fbbc05"/>
        </g>
        <path data-name="Rectangle 349" style="fill:none" d="M0 0h32v31H0z"/>
    </g>
</svg>
