<svg xmlns="http://www.w3.org/2000/svg" width="16.188" height="18.5" viewBox="0 0 16.188 18.5">
  <defs>
    <style>
      .cls-1 {
        fill: #2b8ff2;
      }
    </style>
  </defs>
  <path id="Icon_awesome-calendar-alt" data-name="Icon awesome-calendar-alt" class="cls-1" d="M0,16.766A1.735,1.735,0,0,0,1.734,18.5H14.453a1.735,1.735,0,0,0,1.734-1.734V6.938H0ZM11.563,9.684A.435.435,0,0,1,12,9.25h1.445a.435.435,0,0,1,.434.434v1.445a.435.435,0,0,1-.434.434H12a.435.435,0,0,1-.434-.434Zm0,4.625A.435.435,0,0,1,12,13.875h1.445a.435.435,0,0,1,.434.434v1.445a.435.435,0,0,1-.434.434H12a.435.435,0,0,1-.434-.434ZM6.938,9.684a.435.435,0,0,1,.434-.434H8.816a.435.435,0,0,1,.434.434v1.445a.435.435,0,0,1-.434.434H7.371a.435.435,0,0,1-.434-.434Zm0,4.625a.435.435,0,0,1,.434-.434H8.816a.435.435,0,0,1,.434.434v1.445a.435.435,0,0,1-.434.434H7.371a.435.435,0,0,1-.434-.434ZM2.313,9.684a.435.435,0,0,1,.434-.434H4.191a.435.435,0,0,1,.434.434v1.445a.435.435,0,0,1-.434.434H2.746a.435.435,0,0,1-.434-.434Zm0,4.625a.435.435,0,0,1,.434-.434H4.191a.435.435,0,0,1,.434.434v1.445a.435.435,0,0,1-.434.434H2.746a.435.435,0,0,1-.434-.434Zm12.141-12H12.719V.578A.58.58,0,0,0,12.141,0H10.984a.58.58,0,0,0-.578.578V2.313H5.781V.578A.58.58,0,0,0,5.2,0H4.047a.58.58,0,0,0-.578.578V2.313H1.734A1.735,1.735,0,0,0,0,4.047V5.781H16.188V4.047A1.735,1.735,0,0,0,14.453,2.313Z"/>
</svg>
