<svg xmlns="http://www.w3.org/2000/svg" width="16.188" height="18.5" viewBox="0 0 16.188 18.5">
    <path data-name="Icon awesome-calendar-alt" d="M0 16.766A1.735 1.735 0 0 0 1.734 18.5h12.719a1.735 1.735 0 0 0 1.734-1.734V6.938H0zm11.563-7.082A.435.435 0 0 1 12 9.25h1.445a.435.435 0 0 1 .434.434v1.445a.435.435 0 0 1-.434.434H12a.435.435 0 0 1-.434-.434zm0 4.625a.435.435 0 0 1 .437-.434h1.445a.435.435 0 0 1 .434.434v1.445a.435.435 0 0 1-.434.434H12a.435.435 0 0 1-.434-.434zM6.938 9.684a.435.435 0 0 1 .434-.434h1.444a.435.435 0 0 1 .434.434v1.445a.435.435 0 0 1-.434.434H7.371a.435.435 0 0 1-.434-.434zm0 4.625a.435.435 0 0 1 .434-.434h1.444a.435.435 0 0 1 .434.434v1.445a.435.435 0 0 1-.434.434H7.371a.435.435 0 0 1-.434-.434zM2.313 9.684a.435.435 0 0 1 .434-.434h1.444a.435.435 0 0 1 .434.434v1.445a.435.435 0 0 1-.434.434H2.746a.435.435 0 0 1-.434-.434zm0 4.625a.435.435 0 0 1 .434-.434h1.444a.435.435 0 0 1 .434.434v1.445a.435.435 0 0 1-.434.434H2.746a.435.435 0 0 1-.434-.434zm12.141-12h-1.735V.578A.58.58 0 0 0 12.141 0h-1.157a.58.58 0 0 0-.578.578v1.735H5.781V.578A.58.58 0 0 0 5.2 0H4.047a.58.58 0 0 0-.578.578v1.735H1.734A1.735 1.735 0 0 0 0 4.047v1.734h16.188V4.047a1.735 1.735 0 0 0-1.735-1.734z" style="fill:#2b8ff2"/>
</svg>
