<svg xmlns="http://www.w3.org/2000/svg" width="35" height="35" viewBox="0 0 35 35">
    <g data-name="Group 925">
        <path data-name="Rectangle 101" style="fill:#4e7ba0" d="M0 0h35v35H0z"/>
        <path data-name="Icon simple-instagram" d="M7.621 0C5.55 0 5.292.01 4.479.046A5.619 5.619 0 0 0 2.629.4a3.732 3.732 0 0 0-1.35.879A3.718 3.718 0 0 0 .4 2.629a5.6 5.6 0 0 0-.354 1.85C.008 5.292 0 5.55 0 7.621s.01 2.329.046 3.142A5.623 5.623 0 0 0 .4 12.612a3.737 3.737 0 0 0 .879 1.35 3.727 3.727 0 0 0 1.35.879 5.626 5.626 0 0 0 1.85.354c.813.038 1.071.046 3.142.046s2.329-.01 3.142-.046a5.639 5.639 0 0 0 1.85-.354 3.895 3.895 0 0 0 2.229-2.229 5.623 5.623 0 0 0 .354-1.85c.038-.813.046-1.071.046-3.142s-.01-2.329-.046-3.142a5.636 5.636 0 0 0-.354-1.85 3.74 3.74 0 0 0-.879-1.35A3.713 3.713 0 0 0 12.612.4a5.606 5.606 0 0 0-1.85-.354C9.95.008 9.691 0 7.621 0zm0 1.372c2.034 0 2.277.01 3.08.045a4.2 4.2 0 0 1 1.414.264 2.508 2.508 0 0 1 1.447 1.446 4.208 4.208 0 0 1 .262 1.414c.036.8.044 1.045.044 3.08s-.01 2.277-.047 3.08a4.289 4.289 0 0 1-.267 1.414 2.42 2.42 0 0 1-.571.878 2.378 2.378 0 0 1-.876.569 4.238 4.238 0 0 1-1.419.262c-.809.036-1.047.044-3.086.044s-2.277-.01-3.086-.047a4.321 4.321 0 0 1-1.42-.267 2.36 2.36 0 0 1-.876-.571 2.314 2.314 0 0 1-.572-.876 4.325 4.325 0 0 1-.267-1.419c-.029-.8-.039-1.047-.039-3.076s.01-2.277.039-3.087a4.32 4.32 0 0 1 .267-1.419 2.259 2.259 0 0 1 .572-.877 2.254 2.254 0 0 1 .876-.57 4.218 4.218 0 0 1 1.41-.267c.81-.029 1.048-.038 3.086-.038l.029.019zm0 2.336a3.913 3.913 0 1 0 3.913 3.913 3.913 3.913 0 0 0-3.913-3.914zm0 6.453a2.54 2.54 0 1 1 2.54-2.54 2.54 2.54 0 0 1-2.54 2.54zM12.6 3.553a.914.914 0 1 1-.914-.914.915.915 0 0 1 .914.914z" transform="translate(10 10)" style="fill:#fff"/>
    </g>
</svg>
