<svg xmlns="http://www.w3.org/2000/svg" width="35" height="35" viewBox="0 0 35 35">
    <g data-name="Group 922">
        <path data-name="Rectangle 104" style="fill:#0076b3" d="M0 0h35v35H0z"/>
        <path data-name="Icon awesome-linkedin-in" d="M3.412 15.242H.252V5.066h3.16zM1.83 3.678a1.839 1.839 0 1 1 1.83-1.847 1.845 1.845 0 0 1-1.83 1.847zm13.408 11.564h-3.153v-4.953c0-1.181-.024-2.695-1.643-2.695-1.642 0-1.894 1.283-1.894 2.606v5.039H5.391V5.066h3.031v1.388h.044a3.32 3.32 0 0 1 2.99-1.643c3.2 0 3.786 2.106 3.786 4.841v5.59z" transform="translate(10 9.998)" style="fill:#fff"/>
    </g>
</svg>
