<svg xmlns="http://www.w3.org/2000/svg" width="11.939" height="11.941" viewBox="0 0 11.939 11.941">
    <path data-name="Icon awesome-check-double" d="m11.773 4.075-.923-.923a.557.557 0 0 0-.79 0L4.475 8.736l-2.6-2.6a.557.557 0 0 0-.79 0l-.926.926a.56.56 0 0 0 0 .793l3.917 3.92a.557.557 0 0 0 .79 0l6.9-6.907a.562.562 0 0 0 .007-.793zM4.211 6.546a.37.37 0 0 0 .527 0l4.85-4.855a.374.374 0 0 0 0-.527L8.534.108a.37.37 0 0 0-.527 0L4.475 3.641 3.183 2.347a.37.37 0 0 0-.527 0L1.6 3.4a.374.374 0 0 0 0 .527z" transform="translate(.004 .002)" style="fill:#2b8ff2"/>
</svg>
