<svg xmlns="http://www.w3.org/2000/svg" width="35" height="35" viewBox="0 0 35 35">
    <g data-name="Group 923">
        <path data-name="Rectangle 103" style="fill:#1da1f1" d="M0 0h35v35H0z"/>
        <path data-name="Icon awesome-twitter" d="M14.907 6.744c.011.148.011.3.011.443a9.622 9.622 0 0 1-9.688 9.688A9.623 9.623 0 0 1 0 15.346a7.044 7.044 0 0 0 .822.042 6.819 6.819 0 0 0 4.228-1.455 3.411 3.411 0 0 1-3.184-2.361 4.294 4.294 0 0 0 .643.053 3.6 3.6 0 0 0 .9-.116A3.406 3.406 0 0 1 .675 8.167v-.042a3.429 3.429 0 0 0 1.539.432A3.41 3.41 0 0 1 1.16 4a9.679 9.679 0 0 0 7.021 3.566 3.844 3.844 0 0 1-.084-.78 3.408 3.408 0 0 1 5.893-2.33 6.7 6.7 0 0 0 2.161-.822 3.4 3.4 0 0 1-1.5 1.876 6.826 6.826 0 0 0 1.961-.527 7.32 7.32 0 0 1-1.708 1.761z" transform="translate(9 7.619)" style="fill:#fff"/>
    </g>
</svg>
