<svg data-name="ðŸ”-Product-Icons" xmlns="http://www.w3.org/2000/svg" width="16.327" height="19.907" viewBox="0 0 16.327 19.907">
    <path data-name="ðŸŽ¨-Color" d="M17.913 7.25a3.294 3.294 0 0 1 3.292 3.168v.126h4.153a.716.716 0 0 1 .073 1.428h-.698l-.976 12.93a2.435 2.435 0 0 1-2.428 2.251h-6.834a2.435 2.435 0 0 1-2.428-2.251l-.976-12.93h-.624a.716.716 0 0 1-.712-.643v-.073a.716.716 0 0 1 .643-.712h4.226a3.294 3.294 0 0 1 3.289-3.294zm5.387 4.726H12.527l.968 12.824a1 1 0 0 0 1 .927h6.838a1 1 0 0 0 1-.927zm-3.524 3.008a.716.716 0 0 1 .712.643V22a.716.716 0 0 1-1.428.073V15.7a.716.716 0 0 1 .715-.716zm-3.724 0a.716.716 0 0 1 .712.643V22a.716.716 0 0 1-1.428.073V15.7a.716.716 0 0 1 .716-.716zm1.862-6.3a1.862 1.862 0 0 0-1.859 1.756v.106h3.724a1.862 1.862 0 0 0-1.866-1.864z" transform="translate(-9.75 -7.25)" style="fill:#f41450"/>
</svg>
